<?xml version="1.0" encoding="utf-8"?>
<!-- Generator: Adobe Illustrator 15.1.0, SVG Export Plug-In . SVG Version: 6.00 Build 0)  -->
<!DOCTYPE svg PUBLIC "-//W3C//DTD SVG 1.1//EN" "http://www.w3.org/Graphics/SVG/1.1/DTD/svg11.dtd">
<svg version="1.1" id="Layer_1" xmlns="http://www.w3.org/2000/svg" xmlns:xlink="http://www.w3.org/1999/xlink" x="0px" y="0px"
	 width="612px" height="792px" viewBox="0 0 612 792" enable-background="new 0 0 612 792" xml:space="preserve">
<path fill="#FFFFFF" d="M0,177.429c0-24.18,19.535-43.714,43.714-43.714h524.572c24.179,0,43.714,19.535,43.714,43.714
	c0,24.179-19.535,43.714-43.714,43.714H43.714C19.535,221.143,0,201.608,0,177.429z M0,396c0-24.18,19.535-43.714,43.714-43.714
	h524.572C592.465,352.286,612,371.82,612,396s-19.535,43.714-43.714,43.714H43.714C19.535,439.714,0,420.18,0,396z M612,614.571
	c0,24.18-19.535,43.715-43.714,43.715H43.714C19.535,658.286,0,638.751,0,614.571s19.535-43.714,43.714-43.714h524.572
	C592.465,570.857,612,590.392,612,614.571z"/>
</svg>
